<mxfile host="app.diagrams.net" modified="2023-09-08T15:58:12.766Z" agent="Mozilla/5.0 (Windows NT 10.0; Win64; x64) AppleWebKit/537.36 (KHTML, like Gecko) Chrome/116.0.0.0 Safari/537.36" etag="q9CddXamMNV4Jq14ic2g" version="21.7.2" type="google">
  <diagram id="C5RBs43oDa-KdzZeNtuy" name="Page-1">
    <mxGraphModel grid="1" page="1" gridSize="10" guides="1" tooltips="1" connect="1" arrows="1" fold="1" pageScale="1" pageWidth="827" pageHeight="1169" math="0" shadow="0">
      <root>
        <mxCell id="WIyWlLk6GJQsqaUBKTNV-0" />
        <mxCell id="WIyWlLk6GJQsqaUBKTNV-1" parent="WIyWlLk6GJQsqaUBKTNV-0" />
        <mxCell id="3loNNp3lhBLEDisTv_pw-6" value="Camp" style="swimlane;fontStyle=1;align=center;verticalAlign=top;childLayout=stackLayout;horizontal=1;startSize=26;horizontalStack=0;resizeParent=1;resizeParentMax=0;resizeLast=0;collapsible=1;marginBottom=0;html=1;fillColor=#dae8fc;strokeColor=#6c8ebf;" vertex="1" parent="WIyWlLk6GJQsqaUBKTNV-1">
          <mxGeometry x="400" y="458" width="200" height="130" as="geometry" />
        </mxCell>
        <mxCell id="3loNNp3lhBLEDisTv_pw-7" value="- campTitle: String&lt;br&gt;- campFee: Double&lt;br&gt;- startDate: Date&lt;br&gt;- endDate: Date&lt;br&gt;- instructor: Instructor&lt;br&gt;- venue: Venue" style="text;strokeColor=#6c8ebf;fillColor=#dae8fc;align=left;verticalAlign=top;spacingLeft=4;spacingRight=4;overflow=hidden;rotatable=0;points=[[0,0.5],[1,0.5]];portConstraint=eastwest;html=1;" vertex="1" parent="3loNNp3lhBLEDisTv_pw-6">
          <mxGeometry y="26" width="200" height="104" as="geometry" />
        </mxCell>
        <mxCell id="3loNNp3lhBLEDisTv_pw-10" value="Venue" style="swimlane;fontStyle=1;align=center;verticalAlign=top;childLayout=stackLayout;horizontal=1;startSize=26;horizontalStack=0;resizeParent=1;resizeParentMax=0;resizeLast=0;collapsible=1;marginBottom=0;html=1;fillColor=#dae8fc;strokeColor=#6c8ebf;" vertex="1" parent="WIyWlLk6GJQsqaUBKTNV-1">
          <mxGeometry x="139" y="468" width="160" height="106" as="geometry" />
        </mxCell>
        <mxCell id="3loNNp3lhBLEDisTv_pw-11" value="- venueName: String&lt;br&gt;- street: String&lt;br&gt;- postcode: String" style="text;strokeColor=#6c8ebf;fillColor=#dae8fc;align=left;verticalAlign=top;spacingLeft=4;spacingRight=4;overflow=hidden;rotatable=0;points=[[0,0.5],[1,0.5]];portConstraint=eastwest;html=1;" vertex="1" parent="3loNNp3lhBLEDisTv_pw-10">
          <mxGeometry y="26" width="160" height="54" as="geometry" />
        </mxCell>
        <mxCell id="3loNNp3lhBLEDisTv_pw-13" value="+ method(type): type" style="text;strokeColor=#6c8ebf;fillColor=#dae8fc;align=left;verticalAlign=top;spacingLeft=4;spacingRight=4;overflow=hidden;rotatable=0;points=[[0,0.5],[1,0.5]];portConstraint=eastwest;html=1;" vertex="1" parent="3loNNp3lhBLEDisTv_pw-10">
          <mxGeometry y="80" width="160" height="26" as="geometry" />
        </mxCell>
        <mxCell id="3loNNp3lhBLEDisTv_pw-14" value="Instructor" style="swimlane;fontStyle=1;align=center;verticalAlign=top;childLayout=stackLayout;horizontal=1;startSize=26;horizontalStack=0;resizeParent=1;resizeParentMax=0;resizeLast=0;collapsible=1;marginBottom=0;html=1;fillColor=#dae8fc;strokeColor=#6c8ebf;" vertex="1" parent="WIyWlLk6GJQsqaUBKTNV-1">
          <mxGeometry x="720" y="458" width="200" height="130" as="geometry" />
        </mxCell>
        <mxCell id="3loNNp3lhBLEDisTv_pw-15" value="- name: String&lt;br&gt;- gender: String&lt;br&gt;- age: Integer&lt;br&gt;- educationBackground: String&lt;br&gt;- workingExperience: String&lt;br&gt;- photograph: List&amp;lt;Image&amp;gt;" style="text;strokeColor=#6c8ebf;fillColor=#dae8fc;align=left;verticalAlign=top;spacingLeft=4;spacingRight=4;overflow=hidden;rotatable=0;points=[[0,0.5],[1,0.5]];portConstraint=eastwest;html=1;" vertex="1" parent="3loNNp3lhBLEDisTv_pw-14">
          <mxGeometry y="26" width="200" height="104" as="geometry" />
        </mxCell>
        <mxCell id="3loNNp3lhBLEDisTv_pw-18" value="Admin" style="swimlane;fontStyle=1;align=center;verticalAlign=top;childLayout=stackLayout;horizontal=1;startSize=26;horizontalStack=0;resizeParent=1;resizeParentMax=0;resizeLast=0;collapsible=1;marginBottom=0;html=1;fillColor=#dae8fc;strokeColor=#6c8ebf;" vertex="1" parent="WIyWlLk6GJQsqaUBKTNV-1">
          <mxGeometry x="690" y="689" width="230" height="100" as="geometry" />
        </mxCell>
        <mxCell id="3loNNp3lhBLEDisTv_pw-21" value="+ modifyCampInfomation()&lt;br&gt;+ viewReportByCamp(camp: Camp)&lt;br&gt;+ viewReportByClient(client: Client)" style="text;strokeColor=#6c8ebf;fillColor=#dae8fc;align=left;verticalAlign=top;spacingLeft=4;spacingRight=4;overflow=hidden;rotatable=0;points=[[0,0.5],[1,0.5]];portConstraint=eastwest;html=1;" vertex="1" parent="3loNNp3lhBLEDisTv_pw-18">
          <mxGeometry y="26" width="230" height="74" as="geometry" />
        </mxCell>
        <mxCell id="3loNNp3lhBLEDisTv_pw-23" value="" style="endArrow=block;endSize=16;endFill=0;html=1;rounded=0;exitX=0.563;exitY=0;exitDx=0;exitDy=0;entryX=0.498;entryY=1.003;entryDx=0;entryDy=0;entryPerimeter=0;exitPerimeter=0;fillColor=#dae8fc;strokeColor=#6c8ebf;" edge="1" parent="WIyWlLk6GJQsqaUBKTNV-1" source="3loNNp3lhBLEDisTv_pw-18" target="3loNNp3lhBLEDisTv_pw-15">
          <mxGeometry width="160" relative="1" as="geometry">
            <mxPoint x="436" y="760" as="sourcePoint" />
            <mxPoint x="806" y="714" as="targetPoint" />
          </mxGeometry>
        </mxCell>
        <mxCell id="oWxxA1QI3N4GEIZHTXu_-1" value="Modify" style="endArrow=open;endSize=12;dashed=1;html=1;rounded=0;entryX=0.5;entryY=1;entryDx=0;entryDy=0;edgeStyle=orthogonalEdgeStyle;fillColor=#dae8fc;strokeColor=#6c8ebf;" edge="1" parent="WIyWlLk6GJQsqaUBKTNV-1" target="3loNNp3lhBLEDisTv_pw-6">
          <mxGeometry x="-0.3578" y="17" width="160" relative="1" as="geometry">
            <mxPoint x="691" y="740" as="sourcePoint" />
            <mxPoint x="490.99999999999994" y="605.9979999999998" as="targetPoint" />
            <Array as="points">
              <mxPoint x="500" y="740" />
            </Array>
            <mxPoint as="offset" />
          </mxGeometry>
        </mxCell>
        <mxCell id="oWxxA1QI3N4GEIZHTXu_-2" value="&lt;p style=&quot;margin:0px;margin-top:4px;text-align:center;&quot;&gt;&lt;i&gt;&amp;lt;&amp;lt;enumeration&amp;gt;&amp;gt;&lt;/i&gt;&lt;br&gt;&lt;b&gt;PromotionCode&lt;/b&gt;&lt;/p&gt;&lt;hr size=&quot;1&quot;&gt;&lt;p style=&quot;margin:0px;margin-left:4px;&quot;&gt;LOYALTY&lt;/p&gt;&lt;p style=&quot;margin:0px;margin-left:4px;&quot;&gt;FIRSTTIMER&lt;/p&gt;&lt;p style=&quot;margin:0px;margin-left:4px;&quot;&gt;PEFER&lt;/p&gt;" style="verticalAlign=top;align=left;overflow=fill;fontSize=12;fontFamily=Helvetica;html=1;fillColor=#dae8fc;strokeColor=#6c8ebf;" vertex="1" parent="WIyWlLk6GJQsqaUBKTNV-1">
          <mxGeometry x="139" y="165" width="160" height="104" as="geometry" />
        </mxCell>
        <mxCell id="oWxxA1QI3N4GEIZHTXu_-3" value="Use" style="endArrow=open;endSize=12;dashed=1;html=1;rounded=0;exitX=0;exitY=0.5;exitDx=0;exitDy=0;fillColor=#dae8fc;strokeColor=#6c8ebf;" edge="1" parent="WIyWlLk6GJQsqaUBKTNV-1">
          <mxGeometry x="-0.0769" y="-11" width="160" relative="1" as="geometry">
            <mxPoint x="400" y="217.0000000000001" as="sourcePoint" />
            <mxPoint x="300" y="217" as="targetPoint" />
            <mxPoint as="offset" />
          </mxGeometry>
        </mxCell>
        <mxCell id="oWxxA1QI3N4GEIZHTXu_-4" value="ClientRepository" style="swimlane;fontStyle=1;align=center;verticalAlign=top;childLayout=stackLayout;horizontal=1;startSize=26;horizontalStack=0;resizeParent=1;resizeParentMax=0;resizeLast=0;collapsible=1;marginBottom=0;html=1;fillColor=#dae8fc;strokeColor=#6c8ebf;" vertex="1" parent="WIyWlLk6GJQsqaUBKTNV-1">
          <mxGeometry x="720" y="178" width="200" height="78" as="geometry" />
        </mxCell>
        <mxCell id="oWxxA1QI3N4GEIZHTXu_-5" value="- clients: List&amp;lt;Client&amp;gt;" style="text;strokeColor=#6c8ebf;fillColor=#dae8fc;align=left;verticalAlign=top;spacingLeft=4;spacingRight=4;overflow=hidden;rotatable=0;points=[[0,0.5],[1,0.5]];portConstraint=eastwest;html=1;" vertex="1" parent="oWxxA1QI3N4GEIZHTXu_-4">
          <mxGeometry y="26" width="200" height="26" as="geometry" />
        </mxCell>
        <mxCell id="oWxxA1QI3N4GEIZHTXu_-7" value="+ register()" style="text;strokeColor=#6c8ebf;fillColor=#dae8fc;align=left;verticalAlign=top;spacingLeft=4;spacingRight=4;overflow=hidden;rotatable=0;points=[[0,0.5],[1,0.5]];portConstraint=eastwest;html=1;" vertex="1" parent="oWxxA1QI3N4GEIZHTXu_-4">
          <mxGeometry y="52" width="200" height="26" as="geometry" />
        </mxCell>
        <mxCell id="oWxxA1QI3N4GEIZHTXu_-8" value="" style="endArrow=diamondThin;endFill=0;endSize=24;html=1;rounded=0;exitX=1;exitY=0.5;exitDx=0;exitDy=0;entryX=0;entryY=0.5;entryDx=0;entryDy=0;edgeStyle=orthogonalEdgeStyle;fillColor=#dae8fc;strokeColor=#6c8ebf;" edge="1" parent="WIyWlLk6GJQsqaUBKTNV-1" source="oWxxA1QI3N4GEIZHTXu_-16" target="oWxxA1QI3N4GEIZHTXu_-5">
          <mxGeometry width="160" relative="1" as="geometry">
            <mxPoint x="400" y="506" as="sourcePoint" />
            <mxPoint x="560" y="506" as="targetPoint" />
          </mxGeometry>
        </mxCell>
        <mxCell id="oWxxA1QI3N4GEIZHTXu_-9" value="InstructorRepository" style="swimlane;fontStyle=1;align=center;verticalAlign=top;childLayout=stackLayout;horizontal=1;startSize=26;horizontalStack=0;resizeParent=1;resizeParentMax=0;resizeLast=0;collapsible=1;marginBottom=0;html=1;fillColor=#dae8fc;strokeColor=#6c8ebf;" vertex="1" parent="WIyWlLk6GJQsqaUBKTNV-1">
          <mxGeometry x="720" y="330" width="200" height="52" as="geometry" />
        </mxCell>
        <mxCell id="oWxxA1QI3N4GEIZHTXu_-10" value="- instructors: List&amp;lt;Instructor&amp;gt;" style="text;strokeColor=#6c8ebf;fillColor=#dae8fc;align=left;verticalAlign=top;spacingLeft=4;spacingRight=4;overflow=hidden;rotatable=0;points=[[0,0.5],[1,0.5]];portConstraint=eastwest;html=1;" vertex="1" parent="oWxxA1QI3N4GEIZHTXu_-9">
          <mxGeometry y="26" width="200" height="26" as="geometry" />
        </mxCell>
        <mxCell id="oWxxA1QI3N4GEIZHTXu_-13" value="" style="endArrow=diamondThin;endFill=0;endSize=24;html=1;rounded=0;exitX=0.5;exitY=0;exitDx=0;exitDy=0;fillColor=#dae8fc;strokeColor=#6c8ebf;entryX=0.501;entryY=0.998;entryDx=0;entryDy=0;entryPerimeter=0;" edge="1" parent="WIyWlLk6GJQsqaUBKTNV-1" source="3loNNp3lhBLEDisTv_pw-14" target="oWxxA1QI3N4GEIZHTXu_-10">
          <mxGeometry width="160" relative="1" as="geometry">
            <mxPoint x="486" y="490" as="sourcePoint" />
            <mxPoint x="826" y="450" as="targetPoint" />
          </mxGeometry>
        </mxCell>
        <mxCell id="oWxxA1QI3N4GEIZHTXu_-14" value="" style="endArrow=diamondThin;endFill=0;endSize=24;html=1;rounded=0;exitX=0.001;exitY=0.346;exitDx=0;exitDy=0;exitPerimeter=0;fillColor=#dae8fc;strokeColor=#6c8ebf;entryX=1.004;entryY=0.347;entryDx=0;entryDy=0;entryPerimeter=0;" edge="1" parent="WIyWlLk6GJQsqaUBKTNV-1" source="3loNNp3lhBLEDisTv_pw-15" target="3loNNp3lhBLEDisTv_pw-7">
          <mxGeometry width="160" relative="1" as="geometry">
            <mxPoint x="486" y="530" as="sourcePoint" />
            <mxPoint x="646" y="530" as="targetPoint" />
          </mxGeometry>
        </mxCell>
        <mxCell id="oWxxA1QI3N4GEIZHTXu_-15" value="Client" style="swimlane;fontStyle=1;align=center;verticalAlign=top;childLayout=stackLayout;horizontal=1;startSize=26;horizontalStack=0;resizeParent=1;resizeParentMax=0;resizeLast=0;collapsible=1;marginBottom=0;fillColor=#dae8fc;strokeColor=#6c8ebf;html=1;" vertex="1" parent="WIyWlLk6GJQsqaUBKTNV-1">
          <mxGeometry x="400" y="139" width="200" height="182" as="geometry" />
        </mxCell>
        <mxCell id="oWxxA1QI3N4GEIZHTXu_-16" value="- password: String&lt;br style=&quot;border-color: var(--border-color);&quot;&gt;- name: String&lt;br style=&quot;border-color: var(--border-color);&quot;&gt;- emailAddress: String&lt;br style=&quot;border-color: var(--border-color);&quot;&gt;- residenceAdress: String&lt;br style=&quot;border-color: var(--border-color);&quot;&gt;- promotion: Set&amp;lt;PromotionCode&amp;gt;&lt;br style=&quot;border-color: var(--border-color);&quot;&gt;- registeredCamps: List&amp;lt;Camp&amp;gt;" style="text;strokeColor=#6c8ebf;fillColor=#dae8fc;align=left;verticalAlign=top;spacingLeft=4;spacingRight=4;overflow=hidden;rotatable=0;points=[[0,0.5],[1,0.5]];portConstraint=eastwest;html=1;" vertex="1" parent="oWxxA1QI3N4GEIZHTXu_-15">
          <mxGeometry y="26" width="200" height="104" as="geometry" />
        </mxCell>
        <mxCell id="oWxxA1QI3N4GEIZHTXu_-18" value="+ bookCamp(camp: Camp)&lt;br&gt;+ pay(money: Double)" style="text;strokeColor=#6c8ebf;fillColor=#dae8fc;align=left;verticalAlign=top;spacingLeft=4;spacingRight=4;overflow=hidden;rotatable=0;points=[[0,0.5],[1,0.5]];portConstraint=eastwest;html=1;" vertex="1" parent="oWxxA1QI3N4GEIZHTXu_-15">
          <mxGeometry y="130" width="200" height="52" as="geometry" />
        </mxCell>
        <mxCell id="oWxxA1QI3N4GEIZHTXu_-24" value="" style="endArrow=none;html=1;rounded=0;entryX=0.5;entryY=0;entryDx=0;entryDy=0;exitX=0.499;exitY=1.002;exitDx=0;exitDy=0;exitPerimeter=0;fillColor=#dae8fc;strokeColor=#6c8ebf;" edge="1" parent="WIyWlLk6GJQsqaUBKTNV-1" source="oWxxA1QI3N4GEIZHTXu_-18" target="3loNNp3lhBLEDisTv_pw-6">
          <mxGeometry relative="1" as="geometry">
            <mxPoint x="552" y="290" as="sourcePoint" />
            <mxPoint x="540" y="471" as="targetPoint" />
          </mxGeometry>
        </mxCell>
        <mxCell id="oWxxA1QI3N4GEIZHTXu_-25" value="1" style="edgeLabel;resizable=0;html=1;align=left;verticalAlign=bottom;" connectable="0" vertex="1" parent="oWxxA1QI3N4GEIZHTXu_-24">
          <mxGeometry x="-1" relative="1" as="geometry">
            <mxPoint x="8" y="28" as="offset" />
          </mxGeometry>
        </mxCell>
        <mxCell id="oWxxA1QI3N4GEIZHTXu_-26" value="0 ... n" style="edgeLabel;resizable=0;html=1;align=right;verticalAlign=bottom;" connectable="0" vertex="1" parent="oWxxA1QI3N4GEIZHTXu_-24">
          <mxGeometry x="1" relative="1" as="geometry">
            <mxPoint x="-10" y="-7" as="offset" />
          </mxGeometry>
        </mxCell>
        <mxCell id="oWxxA1QI3N4GEIZHTXu_-27" value="" style="endArrow=diamondThin;endFill=0;endSize=24;html=1;rounded=0;exitX=1.002;exitY=0.467;exitDx=0;exitDy=0;fillColor=#dae8fc;strokeColor=#6c8ebf;exitPerimeter=0;" edge="1" parent="WIyWlLk6GJQsqaUBKTNV-1">
          <mxGeometry width="160" relative="1" as="geometry">
            <mxPoint x="299.32000000000005" y="520.2180000000001" as="sourcePoint" />
            <mxPoint x="400" y="520" as="targetPoint" />
          </mxGeometry>
        </mxCell>
      </root>
    </mxGraphModel>
  </diagram>
</mxfile>
